<svg width="20.000000" height="20.000000" viewBox="0 0 20 20" fill="none" xmlns="http://www.w3.org/2000/svg" xmlns:xlink="http://www.w3.org/1999/xlink">
	<desc>
			Created with Pixso.
	</desc>
	<defs>
		<clipPath id="clip10_17">
			<rect id="free-icon-avatar-6386976" width="20.000000" height="20.000000" fill="white" fill-opacity="0"/>
		</clipPath>
	</defs>
	<g clip-path="url(#clip10_17)">
		<path id="path" d="M9.44 0.64C8.28 0.79 7.29 1.28 6.47 2.1C5.74 2.84 5.3 3.63 5.09 4.64C4.98 5.11 4.98 6.13 5.09 6.59C5.3 7.6 5.75 8.41 6.47 9.14C7.19 9.86 8.01 10.31 9.01 10.52C9.48 10.62 10.5 10.62 10.97 10.52C11.98 10.3 12.77 9.87 13.51 9.14C14.23 8.41 14.68 7.6 14.89 6.59C15 6.13 15 5.11 14.89 4.64C14.68 3.64 14.23 2.82 13.51 2.1C12.79 1.38 12.02 0.96 11.04 0.73C10.72 0.66 9.75 0.6 9.44 0.64ZM10.89 1.98C11.59 2.16 12.14 2.48 12.65 3C13.15 3.51 13.47 4.08 13.65 4.78C13.74 5.15 13.74 6.08 13.65 6.45C13.47 7.18 13.16 7.72 12.63 8.25C12.09 8.79 11.55 9.1 10.83 9.28C10.44 9.37 9.56 9.37 9.17 9.28C7.75 8.93 6.69 7.87 6.33 6.45C6.24 6.08 6.24 5.15 6.33 4.78C6.51 4.07 6.83 3.5 7.35 2.98C7.97 2.36 8.54 2.08 9.52 1.89C9.75 1.85 10.6 1.9 10.89 1.98Z" fill="#000000" fill-opacity="1.000000" fill-rule="nonzero"/>
		<path id="path" d="M6.47 2.1C5.74 2.84 5.3 3.63 5.09 4.64C4.98 5.11 4.98 6.13 5.09 6.59C5.3 7.6 5.75 8.41 6.47 9.14C7.19 9.86 8.01 10.31 9.01 10.52C9.48 10.62 10.5 10.62 10.97 10.52C11.98 10.3 12.77 9.87 13.51 9.14C14.23 8.41 14.68 7.6 14.89 6.59C15 6.13 15 5.11 14.89 4.64C14.68 3.64 14.23 2.82 13.51 2.1C12.79 1.38 12.02 0.96 11.04 0.73C10.72 0.66 9.75 0.6 9.44 0.64C8.28 0.79 7.29 1.28 6.47 2.1ZM12.65 3C13.15 3.51 13.47 4.08 13.65 4.78C13.74 5.15 13.74 6.08 13.65 6.45C13.47 7.18 13.16 7.72 12.63 8.25C12.09 8.79 11.55 9.1 10.83 9.28C10.44 9.37 9.56 9.37 9.17 9.28C7.75 8.93 6.69 7.87 6.33 6.45C6.24 6.08 6.24 5.15 6.33 4.78C6.51 4.07 6.83 3.5 7.35 2.98C7.97 2.36 8.54 2.08 9.52 1.89C9.75 1.85 10.6 1.9 10.89 1.98C11.59 2.16 12.14 2.48 12.65 3Z" stroke="#000000" stroke-opacity="0" stroke-width="2.000000"/>
		<path id="path" d="M6.83 11.26C6.53 11.36 5.88 11.72 5.5 11.97C3.43 13.36 2.15 15.51 1.9 18.01C1.84 18.67 1.87 18.92 2 19.11C2.21 19.38 1.57 19.36 10.04 19.35L17.72 19.34L17.82 19.26C18.11 19.05 18.15 18.82 18.08 18.01C17.8 15.16 16.13 12.72 13.61 11.47C12.97 11.15 12.97 11.15 12.42 11.37C11.48 11.74 10.93 11.84 9.99 11.84C9.04 11.84 8.44 11.72 7.54 11.36C7.12 11.19 7.04 11.18 6.83 11.26ZM7.37 12.64C7.73 12.78 8.32 12.93 8.82 13.02C10.12 13.23 11.55 13.06 12.82 12.56C12.94 12.52 12.97 12.53 13.35 12.74C14.63 13.47 15.69 14.63 16.27 15.96C16.54 16.57 16.82 17.62 16.82 18.02L16.82 18.11L9.99 18.11L3.16 18.11L3.16 18.02C3.16 17.85 3.28 17.19 3.38 16.86C3.88 15.13 5.02 13.67 6.59 12.77C6.82 12.63 7.02 12.53 7.04 12.53C7.06 12.53 7.21 12.58 7.37 12.64Z" fill="#000000" fill-opacity="1.000000" fill-rule="nonzero"/>
		<path id="path" d="M5.5 11.97C3.43 13.36 2.15 15.51 1.9 18.01C1.84 18.67 1.87 18.92 2 19.11C2.21 19.38 1.57 19.36 10.04 19.35L17.72 19.34L17.82 19.26C18.11 19.05 18.15 18.82 18.08 18.01C17.8 15.16 16.13 12.72 13.61 11.47C12.97 11.15 12.97 11.15 12.42 11.37C11.48 11.74 10.93 11.84 9.99 11.84C9.04 11.84 8.44 11.72 7.54 11.36C7.12 11.19 7.04 11.18 6.83 11.26C6.53 11.36 5.88 11.72 5.5 11.97ZM8.82 13.02C10.12 13.23 11.55 13.06 12.82 12.56C12.94 12.52 12.97 12.53 13.35 12.74C14.63 13.47 15.69 14.63 16.27 15.96C16.54 16.57 16.82 17.62 16.82 18.02L16.82 18.11L9.99 18.11L3.16 18.11L3.16 18.02C3.16 17.85 3.28 17.19 3.38 16.86C3.88 15.13 5.02 13.67 6.59 12.77C6.82 12.63 7.02 12.53 7.04 12.53C7.06 12.53 7.21 12.58 7.37 12.64C7.73 12.78 8.32 12.93 8.82 13.02Z" stroke="#000000" stroke-opacity="0" stroke-width="2.000000"/>
	</g>
</svg>
