<svg width="20.000000" height="20.000000" viewBox="0 0 20 20" fill="none" xmlns="http://www.w3.org/2000/svg" xmlns:xlink="http://www.w3.org/1999/xlink">
	<desc>
			Created with Pixso.
	</desc>
	<defs>
		<clipPath id="clip9_4">
			<rect id="bag-shopping" width="20.000000" height="20.000000" fill="white" fill-opacity="0"/>
		</clipPath>
	</defs>
	<g clip-path="url(#clip9_4)">
		<path id="Icon" d="M13.99 7.5C14.93 7.5 15.4 7.5 15.75 7.68C16.07 7.84 16.32 8.09 16.48 8.41C16.66 8.76 16.66 9.23 16.66 10.16L16.66 12.16C16.66 14.03 16.66 14.96 16.3 15.68C15.98 16.3 15.47 16.81 14.84 17.13C14.13 17.5 13.2 17.5 11.33 17.5L8.66 17.5C6.79 17.5 5.86 17.5 5.15 17.13C4.52 16.81 4.01 16.3 3.69 15.68C3.33 14.96 3.33 14.03 3.33 12.16L3.33 10.16C3.33 9.23 3.33 8.76 3.51 8.41C3.67 8.09 3.92 7.84 4.24 7.68C4.59 7.5 5.06 7.5 5.99 7.5L13.99 7.5ZM7.49 9.16L7.49 5C7.49 3.61 8.61 2.5 9.99 2.5C11.38 2.5 12.49 3.61 12.49 5L12.49 9.13" stroke="#000000" stroke-opacity="1.000000" stroke-width="2.000000" stroke-linejoin="round" stroke-linecap="round"/>
	</g>
</svg>
