<svg width="20.000000" height="20.000000" viewBox="0 0 20 20" fill="none" xmlns="http://www.w3.org/2000/svg" xmlns:xlink="http://www.w3.org/1999/xlink">
	<desc>
			Created with Pixso.
	</desc>
	<defs>
		<clipPath id="clip9_3">
			<rect id="Logo" width="20.000000" height="20.000000" fill="white" fill-opacity="0"/>
		</clipPath>
	</defs>
	<g clip-path="url(#clip9_3)">
		<path id="path" d="M17.04 6.52C16.96 6.57 15 7.65 15 10.06C15.1 12.79 17.47 13.76 17.51 13.76C17.47 13.81 17.15 15.06 16.21 16.38C15.46 17.52 14.64 18.66 13.38 18.66C12.18 18.66 11.75 17.91 10.37 17.91C8.89 17.91 8.47 18.66 7.34 18.66C6.08 18.66 5.19 17.46 4.4 16.33C3.38 14.86 2.51 12.55 2.48 10.33C2.46 9.16 2.69 8 3.26 7.02C4.07 5.65 5.51 4.72 7.08 4.69C8.29 4.65 9.36 5.52 10.1 5.52C10.8 5.52 12.12 4.69 13.61 4.69C14.26 4.69 15.98 4.88 17.04 6.52ZM10 4.45C9.78 3.38 10.37 2.31 10.93 1.62C11.63 0.79 12.75 0.23 13.71 0.23C13.77 1.31 13.38 2.36 12.68 3.12C12.06 3.95 10.99 4.58 10 4.45Z" fill="#000000" fill-opacity="1.000000" fill-rule="nonzero"/>
	</g>
</svg>
